<?xml version="1.0" standalone="no"?>
<svg
  width="600"
  height="600"
  viewBox="0 0 600 600"
  xmlns="http://www.w3.org/2000/svg"
>
  <g transform="translate(300,300)">
    <path d="M78.7,-92.8C121.3,-77.3,188.6,-80.2,214.1,-56.6C239.7,-33,223.5,17.2,190.6,44.4C157.6,71.6,107.9,75.9,73.3,97C38.8,118.1,19.4,156,-19.3,182.6C-58,209.2,-116,224.3,-148.5,202.5C-181,180.8,-188,122.1,-172.4,77.8C-156.9,33.5,-118.9,3.6,-99.6,-25.2C-80.3,-53.9,-79.8,-81.6,-66.4,-106.5C-52.9,-131.5,-26.5,-153.7,-4.2,-147.9C18,-142.1,36.1,-108.3,78.7,-92.8Z" fill="#ffde85" />
  </g>
</svg>
  